<?xml version="1.0" encoding="UTF-8"?>
<!DOCTYPE svg PUBLIC "-//W3C//DTD SVG 1.1//EN" "http://www.w3.org/Graphics/SVG/1.1/DTD/svg11.dtd">
<!-- Creator: CorelDRAW 2021 (64-Bit) -->
<svg xmlns="http://www.w3.org/2000/svg" xml:space="preserve" width="130.815mm" height="121.352mm" version="1.1" style="shape-rendering:geometricPrecision; text-rendering:geometricPrecision; image-rendering:optimizeQuality; fill-rule:evenodd; clip-rule:evenodd"
viewBox="0 0 13081.5 12135.19"
 xmlns:xlink="http://www.w3.org/1999/xlink"
 xmlns:xodm="http://www.corel.com/coreldraw/odm/2003">
 <defs>
  <style type="text/css">
   <![CDATA[
    .fil0 {fill:white;fill-rule:nonzero}
   ]]>
  </style>
 </defs>
 <g id="Capa_x0020_1">
  <metadata id="CorelCorpID_0Corel-Layer"/>
  <path class="fil0" d="M-0 1814.71l0 0 0 10320.48 9407.55 0 0 -12135.19 -7403.57 0 0 0c-44.53,0 -77.94,11.13 -111.33,44.52l-1836.99 1658.86c-33.4,33.4 -55.66,66.81 -55.66,111.33zm13081.5 -1458.44l-2560.64 0 11.13 9830.6 1269.18 1692.26 1280.31 -1692.26 0.02 -9830.6zm-2215.5 9641.34l-11.13 -8171.77 1892.64 -11.13 0 8182.9 -1881.51 0zm1881.51 -9307.36l0 790.46 -1892.64 11.13 0 -801.59 1892.64 0zm-1692.25 9641.36l1502.99 0 -757.06 1002 -745.93 -1002zm-8149.5 -1848.12l-734.8 0 0 -1246.92 2248.92 0 0 1258.05 -734.8 0.02 0 1825.84 1814.73 0 0 -1836.99 -734.8 0 0 -1246.92 901.78 0 0 -1580.9 -2337.96 0 0 -1258.07 3729.62 0 0 1258.05 -656.86 0.02 0 1580.92 612.32 -0.02 0 1258.05 -779.32 0.02 0 1825.84 1981.71 0 0 -1836.99 -857.26 0 0 -1246.92 901.8 0 0 -1580.9 -857.25 0 0 -1258.07 946.32 0 0 -1580.9 -7258.85 0 0 1580.9 1892.64 0 0 1258.05 -1892.64 0.02 0 1580.92 734.79 -0.02 0 1258.05 -734.79 0.02 0 1825.84 1814.71 0 0 -1836.99zm2248.91 1491.86l-1146.72 0 0 -1157.85 1146.72 0 0 1157.85zm2705.36 0l-1302.57 0 0 -1157.85 1313.7 0 0 1157.85 -11.13 0zm44.55 -3072.76l-1180.13 0 0 -912.93 1180.13 0 0 912.93zm-6479.53 -3751.9l6557.45 0 0 912.93 -6557.45 0 0 -912.93zm0 2838.97l3885.49 0 0 912.93 -3885.49 0 0 -912.93zm1146.72 3985.69l-1146.72 0 0 -1157.85 1146.72 0 0 1157.85zm-233.81 -9641.34l6746.72 0 0 11467.2 -8750.69 -0.02 0 -9652.47 1992.84 0 0 -1814.71 11.13 0zm-333.98 55.65l0 1425.05 -1569.8 0 1569.8 -1425.05z"/>
 </g>
</svg>
